<?xml version="1.0" encoding="UTF-8"?>
<svg id="Layer_2" data-name="Layer 2" xmlns="http://www.w3.org/2000/svg" viewBox="0 0 1491.41 391.05">
  <defs>
    <style>
      .cls-1 {
        fill: #c497fe;
      }

      .cls-1, .cls-2, .cls-3 {
        stroke-width: 0px;
      }

      .cls-2 {
        fill: #fff;
      }

      .cls-3 {
        fill: #007fff;
      }
    </style>
  </defs>
  <g id="Layer_1-2" data-name="Layer 1">
    <g>
      <path class="cls-3" d="M298.45,341.44c-4,3.33-11.5,7.83-22.5,13.5-10.66,5.67-23.83,10.66-39.49,15-15.66,4.33-32.99,6.33-51.99,6-29-.67-54.99-5.83-77.99-15.5-22.66-10-41.99-23.5-57.99-40.5-15.66-17-27.66-36.49-35.99-58.49C4.17,239.46,0,215.96,0,190.97c0-27.99,4.17-53.66,12.5-76.99,8.67-23.33,20.83-43.49,36.49-60.49,16-17,34.99-30.16,56.99-39.49C127.98,4.67,152.31,0,178.97,0c24.66,0,46.49,3.33,65.49,10,19,6.67,34.49,13.83,46.49,21.5l-28.5,68.49c-8.33-6.33-19.5-12.83-33.49-19.5-13.66-7-29.5-10.5-47.49-10.5-14,0-27.5,3-40.49,9-12.66,5.67-24,13.83-33.99,24.5-9.66,10.66-17.33,23.16-23,37.49-5.67,14-8.5,29.33-8.5,45.99,0,17.66,2.5,33.83,7.5,48.49,5.33,14.67,12.83,27.33,22.5,37.99,9.67,10.33,21.16,18.33,34.49,24,13.66,5.67,29,8.5,45.99,8.5,19.66,0,36.49-3.16,50.49-9.5,14-6.33,24.66-13,31.99-20l29.99,64.99Z"/>
      <path class="cls-2" d="M371.65,391.05c-10.83,0-19.5-2.89-26-8.66-6.5-5.78-9.75-13.72-9.75-23.83v-204.17c0-48.02,14.98-85.57,44.95-112.65C410.82,14.66,452.34,1.12,505.42,1.12s94.6,13.54,124.56,40.62c29.97,27.08,44.95,64.63,44.95,112.65v204.17c0,10.11-3.25,18.05-9.75,23.83-6.5,5.78-15.16,8.66-26,8.66s-19.68-2.89-26.54-8.66c-6.5-6.14-9.75-14.08-9.75-23.83v-205.8c0-30.69-8.31-54.16-24.91-70.4-16.61-16.25-40.8-24.37-72.57-24.37s-55.96,8.12-72.57,24.37c-16.61,16.25-24.91,39.72-24.91,70.4v205.8c0,9.75-3.43,17.69-10.29,23.83-6.5,5.78-15.16,8.66-26,8.66ZM916.01,391.05c-42.24,0-78.71-8.12-109.4-24.37-30.33-16.61-53.44-39.54-69.32-68.78-15.88-29.61-23.83-63.54-23.83-101.82s7.95-72.03,23.83-101.27c15.89-29.61,38.99-52.53,69.32-68.78,30.69-16.61,67.16-24.91,109.4-24.91s78.53,8.3,108.85,24.91c30.69,16.25,53.98,39.17,69.86,68.78,15.89,29.24,23.83,63,23.83,101.27s-7.95,72.21-23.83,101.82c-15.88,29.24-39.17,52.17-69.86,68.78-30.33,16.25-66.61,24.37-108.85,24.37ZM916.01,334.19c41.16,0,73.11-12.27,95.86-36.83,22.74-24.91,34.12-58.67,34.12-101.27s-11.92-76.72-35.75-101.27c-23.47-24.55-56.69-36.83-99.65-36.83-39.36,0-70.04,12.64-92.07,37.91-21.66,24.91-32.5,58.31-32.5,100.19s11.37,76.36,34.12,101.27c22.75,24.55,54.7,36.83,95.86,36.83Z"/>
      <path class="cls-1" d="M1485.45,339.61c3.97,5.06,5.96,10.83,5.96,17.33,0,5.78-1.44,11.38-4.33,16.79-2.89,5.06-6.68,9.03-11.37,11.92-5.78,3.25-11.38,4.87-16.79,4.87-9.02,0-18.23-5.41-27.62-16.25l-108.31-129.98-108.32,129.98c-9.02,10.83-18.23,16.25-27.62,16.25-5.05,0-10.65-1.62-16.79-4.87-4.69-2.89-8.48-6.86-11.37-11.92-2.89-5.41-4.33-11.01-4.33-16.79,0-6.5,1.99-12.27,5.96-17.33l120.23-145.69-113.73-136.48c-5.78-6.86-8.67-14.62-8.67-23.29,0-5.42,1.27-10.47,3.79-15.16,2.52-5.05,5.95-8.85,10.29-11.37,6.86-3.97,13.18-5.96,18.95-5.96,9.75,0,18.96,5.24,27.62,15.71l103.98,125.65,103.98-125.65c8.67-10.47,17.87-15.71,27.62-15.71,6.5,0,12.82,1.99,18.96,5.96,4.33,2.53,7.76,6.32,10.29,11.37,2.53,4.69,3.79,9.75,3.79,15.16,0,8.67-2.89,16.43-8.67,23.29l-113.73,136.48,120.23,145.69Z"/>
    </g>
  </g>
</svg>