<svg width="71" height="19" viewBox="0 0 71 19" fill="none" xmlns="http://www.w3.org/2000/svg">
<path d="M9.21669 18.24C7.40869 18.24 5.84069 17.896 4.51269 17.208C3.18469 16.52 2.16869 15.528 1.46469 14.232C0.760688 12.936 0.408688 11.4 0.408688 9.624C0.408688 7.848 0.760688 6.312 1.46469 5.016C2.16869 3.704 3.17669 2.704 4.48869 2.016C5.81669 1.312 7.37669 0.959999 9.16869 0.959999C10.6567 0.959999 12.0327 1.216 13.2967 1.728C14.5607 2.24 15.4967 2.92 16.1047 3.768C16.2967 4.024 16.3927 4.288 16.3927 4.56C16.3927 4.96 16.1767 5.32 15.7447 5.64C15.5527 5.784 15.3127 5.856 15.0247 5.856C14.7847 5.856 14.5447 5.808 14.3047 5.712C14.0647 5.6 13.8647 5.448 13.7047 5.256C13.1607 4.632 12.5287 4.184 11.8087 3.912C11.0887 3.624 10.2087 3.48 9.16869 3.48C7.42469 3.48 6.06469 4.024 5.08869 5.112C4.11269 6.184 3.62469 7.688 3.62469 9.624C3.62469 11.544 4.11269 13.04 5.08869 14.112C6.08069 15.184 7.45669 15.72 9.21669 15.72C11.2327 15.72 12.8407 15.128 14.0407 13.944C14.5367 13.48 14.9927 13.248 15.4087 13.248C15.6967 13.248 15.9607 13.344 16.2007 13.536C16.5687 13.856 16.7527 14.208 16.7527 14.592C16.7527 14.88 16.6487 15.16 16.4407 15.432C15.7527 16.312 14.7687 17 13.4887 17.496C12.2247 17.992 10.8007 18.24 9.21669 18.24Z" fill="#1040B7"/>
<path d="M20.6752 18.24C20.1952 18.24 19.8112 18.112 19.5232 17.856C19.2352 17.6 19.0912 17.248 19.0912 16.8V7.752C19.0912 5.624 19.7552 3.96 21.0832 2.76C22.4112 1.56 24.2512 0.959999 26.6032 0.959999C28.9552 0.959999 30.7952 1.56 32.1232 2.76C33.4512 3.96 34.1152 5.624 34.1152 7.752V16.8C34.1152 17.248 33.9712 17.6 33.6832 17.856C33.3952 18.112 33.0112 18.24 32.5312 18.24C32.0512 18.24 31.6592 18.112 31.3552 17.856C31.0672 17.584 30.9232 17.232 30.9232 16.8V7.68C30.9232 6.32 30.5552 5.28 29.8192 4.56C29.0832 3.84 28.0112 3.48 26.6032 3.48C25.1952 3.48 24.1232 3.84 23.3872 4.56C22.6512 5.28 22.2832 6.32 22.2832 7.68V16.8C22.2832 17.232 22.1312 17.584 21.8272 17.856C21.5392 18.112 21.1552 18.24 20.6752 18.24ZM44.7988 18.24C42.9268 18.24 41.3108 17.88 39.9508 17.16C38.6068 16.424 37.5828 15.408 36.8788 14.112C36.1748 12.8 35.8228 11.296 35.8228 9.6C35.8228 7.904 36.1748 6.408 36.8788 5.112C37.5828 3.8 38.6068 2.784 39.9508 2.064C41.3108 1.328 42.9268 0.959999 44.7988 0.959999C46.6708 0.959999 48.2788 1.328 49.6228 2.064C50.9828 2.784 52.0148 3.8 52.7188 5.112C53.4228 6.408 53.7748 7.904 53.7748 9.6C53.7748 11.296 53.4228 12.8 52.7188 14.112C52.0148 15.408 50.9828 16.424 49.6228 17.16C48.2788 17.88 46.6708 18.24 44.7988 18.24ZM44.7988 15.72C46.6228 15.72 48.0388 15.176 49.0468 14.088C50.0548 12.984 50.5588 11.488 50.5588 9.6C50.5588 7.696 50.0308 6.2 48.9748 5.112C47.9348 4.024 46.4628 3.48 44.5588 3.48C42.8148 3.48 41.4548 4.04 40.4788 5.16C39.5188 6.264 39.0388 7.744 39.0388 9.6C39.0388 11.488 39.5428 12.984 40.5508 14.088C41.5588 15.176 42.9748 15.72 44.7988 15.72Z" fill="white"/>
<path d="M70.0336 15.96C70.2096 16.184 70.2976 16.44 70.2976 16.728C70.2976 16.984 70.2336 17.232 70.1056 17.472C69.9776 17.696 69.8096 17.872 69.6016 18C69.3456 18.144 69.0976 18.216 68.8576 18.216C68.4576 18.216 68.0496 17.976 67.6336 17.496L62.8336 11.736L58.0336 17.496C57.6336 17.976 57.2256 18.216 56.8096 18.216C56.5856 18.216 56.3376 18.144 56.0656 18C55.8576 17.872 55.6896 17.696 55.5616 17.472C55.4336 17.232 55.3696 16.984 55.3696 16.728C55.3696 16.44 55.4576 16.184 55.6336 15.96L60.9616 9.504L55.9216 3.456C55.6656 3.152 55.5376 2.808 55.5376 2.424C55.5376 2.184 55.5936 1.96 55.7056 1.752C55.8176 1.528 55.9696 1.36 56.1616 1.248C56.4656 1.072 56.7456 0.983999 57.0016 0.983999C57.4336 0.983999 57.8416 1.216 58.2256 1.68L62.8336 7.248L67.4416 1.68C67.8256 1.216 68.2336 0.983999 68.6656 0.983999C68.9536 0.983999 69.2336 1.072 69.5056 1.248C69.6976 1.36 69.8496 1.528 69.9616 1.752C70.0736 1.96 70.1296 2.184 70.1296 2.424C70.1296 2.808 70.0016 3.152 69.7456 3.456L64.7056 9.504L70.0336 15.96Z" fill="#C497FE"/>
</svg>
