<svg width="1491" height="100" viewBox="0 0 1491 100" fill="none" xmlns="http://www.w3.org/2000/svg">
<g filter="url(#filter0_d_186_106)">
<path d="M47.7573 91.1007C38.8619 91.1007 31.1474 89.4082 24.6136 86.0233C18.0798 82.6383 13.0811 77.7577 9.61743 71.3814C6.15375 65.005 4.42191 57.4479 4.42191 48.71C4.42191 39.9721 6.15375 32.415 9.61743 26.0386C13.0811 19.5836 18.0405 14.6636 24.4955 11.2786C31.0293 7.81496 38.7045 6.08312 47.5211 6.08312C54.8421 6.08312 61.612 7.34264 67.8309 9.86168C74.0498 12.3807 78.6549 15.7263 81.6462 19.8985C82.5909 21.158 83.0632 22.4569 83.0632 23.7951C83.0632 25.7631 82.0005 27.5343 79.875 29.1087C78.9304 29.8172 77.7496 30.1714 76.3326 30.1714C75.1518 30.1714 73.971 29.9353 72.7902 29.463C71.6094 28.9119 70.6254 28.1641 69.8382 27.2194C67.1618 24.1494 64.0523 21.9452 60.5099 20.607C56.9675 19.19 52.6379 18.4815 47.5211 18.4815C38.9406 18.4815 32.2494 21.158 27.4475 26.511C22.6456 31.7852 20.2446 39.1849 20.2446 48.71C20.2446 58.1564 22.6456 65.5167 27.4475 70.791C32.3282 76.0652 39.0981 78.7023 47.7573 78.7023C57.676 78.7023 65.5874 75.7897 71.4914 69.9644C73.9317 67.6815 76.1752 66.5401 78.2219 66.5401C79.6389 66.5401 80.9378 67.0124 82.1186 67.957C83.9291 69.5314 84.8344 71.2633 84.8344 73.1526C84.8344 74.5695 84.3227 75.9471 83.2994 77.2854C79.9144 81.615 75.0731 84.9999 68.7755 87.4402C62.5566 89.8806 55.5506 91.1007 47.7573 91.1007ZM103.425 91.1007C100.984 91.1007 99.095 90.471 97.7568 89.2114C96.4185 87.9519 95.7494 86.2201 95.7494 84.0159V37.9647C95.7494 35.6818 96.3792 33.95 97.6387 32.7692C98.9769 31.5097 100.827 30.8799 103.188 30.8799C105.55 30.8799 107.4 31.5097 108.738 32.7692C110.076 34.0287 110.746 35.7606 110.746 37.9647V41.8614C113.186 38.7126 116.02 36.3116 119.247 34.6585C122.554 32.9266 126.096 32.0607 129.875 32.0607H132.472C134.991 32.0607 136.92 32.6118 138.258 33.7138C139.675 34.7372 140.384 36.2329 140.384 38.2009C140.384 40.1689 139.675 41.7039 138.258 42.806C136.92 43.8294 134.991 44.341 132.472 44.341H128.458C123.183 44.341 118.972 46.0335 115.823 49.4185C112.753 52.7247 111.218 57.2905 111.218 63.1158V84.0159C111.218 86.2201 110.509 87.9519 109.092 89.2114C107.675 90.471 105.786 91.1007 103.425 91.1007ZM174.687 91.1007C167.917 91.1007 162.013 89.8806 156.975 87.4402C151.937 84.9999 148.04 81.5756 145.285 77.1673C142.608 72.6802 141.27 67.4454 141.27 61.4626C141.27 51.7801 144.065 44.2623 149.654 38.9094C155.322 33.5564 163.272 30.8799 173.506 30.8799C179.804 30.8799 185.353 31.8639 190.155 33.8319C195.036 35.7999 198.815 38.5551 201.491 42.0975C204.246 45.5612 205.624 49.5366 205.624 54.0236C205.624 57.8022 204.404 60.7148 201.963 62.7615C199.602 64.8082 196.217 65.8316 191.808 65.8316H156.266C156.266 70.2399 157.801 73.5855 160.871 75.8684C164.02 78.0726 168.625 79.1746 174.687 79.1746C181.063 79.1746 186.495 77.7577 190.982 74.9238C193.501 73.3494 195.469 72.5622 196.886 72.5622C198.224 72.5622 199.523 73.1919 200.783 74.4514C202.121 75.7897 202.79 77.246 202.79 78.8204C202.79 80.7097 202.003 82.2054 200.428 83.3074C197.122 85.8265 193.265 87.7551 188.856 89.0934C184.448 90.4316 179.725 91.1007 174.687 91.1007ZM187.085 54.9682C188.423 54.9682 189.368 54.7321 189.919 54.2598C190.47 53.7087 190.746 52.8428 190.746 51.662C190.746 48.9068 189.171 46.742 186.023 45.1676C182.952 43.5932 178.78 42.806 173.506 42.806C168.232 42.806 164.06 43.9081 160.99 46.1122C157.998 48.3164 156.503 51.2684 156.503 54.9682H187.085ZM239.181 91.1007C230.443 91.1007 224.893 85.9052 222.531 75.5142L214.384 38.9094C214.226 37.9647 214.148 37.335 214.148 37.0201C214.148 35.0521 214.817 33.5564 216.155 32.533C217.572 31.431 219.54 30.8799 222.059 30.8799C224.578 30.8799 226.625 31.431 228.199 32.533C229.774 33.6351 230.718 35.1702 231.033 37.1382L237.528 76.3407C237.764 77.9938 238.315 78.8204 239.181 78.8204C240.125 78.8204 240.716 78.0332 240.952 76.4588L245.439 43.8687C246.069 39.6966 247.604 36.5084 250.044 34.3042C252.484 32.0214 255.633 30.8799 259.49 30.8799C263.348 30.8799 266.496 32.0214 268.937 34.3042C271.377 36.5084 272.912 39.6966 273.542 43.8687L278.029 76.4588C278.265 78.0332 278.856 78.8204 279.8 78.8204C280.666 78.8204 281.217 77.9938 281.453 76.3407L287.948 37.1382C288.263 35.1702 289.207 33.6351 290.782 32.533C292.356 31.431 294.403 30.8799 296.922 30.8799C299.441 30.8799 301.369 31.431 302.708 32.533C304.125 33.5564 304.833 35.0521 304.833 37.0201C304.833 37.335 304.754 37.9647 304.597 38.9094L296.449 75.5142C294.088 85.9052 288.538 91.1007 279.8 91.1007C275.471 91.1007 272.125 89.7625 269.763 87.086C267.402 84.4095 265.827 80.2374 265.04 74.5695L261.144 45.5218C261.065 44.6559 260.868 44.0655 260.553 43.7506C260.317 43.357 259.963 43.1602 259.49 43.1602C259.018 43.1602 258.624 43.357 258.31 43.7506C258.073 44.0655 257.916 44.6559 257.837 45.5218L253.941 74.5695C253.153 80.2374 251.579 84.4095 249.217 87.086C246.856 89.7625 243.51 91.1007 239.181 91.1007ZM320.443 91.1007C318.002 91.1007 316.113 90.471 314.775 89.2114C313.437 87.9519 312.768 86.2201 312.768 84.0159V37.9647C312.768 35.6818 313.397 33.95 314.657 32.7692C315.995 31.5097 317.845 30.8799 320.207 30.8799C322.568 30.8799 324.418 31.5097 325.756 32.7692C327.095 34.0287 327.764 35.7606 327.764 37.9647V41.389C333.353 34.383 340.989 30.8799 350.671 30.8799C358.228 30.8799 364.172 33.2809 368.501 38.0828C372.91 42.806 375.114 49.261 375.114 57.4479V84.0159C375.114 86.2201 374.405 87.9519 372.988 89.2114C371.571 90.471 369.682 91.1007 367.321 91.1007C364.88 91.1007 362.991 90.471 361.653 89.2114C360.314 87.9519 359.645 86.2201 359.645 84.0159V57.4479C359.645 52.9609 358.543 49.4578 356.339 46.9388C354.135 44.4198 351.065 43.1602 347.129 43.1602C341.146 43.1602 336.502 44.9314 333.195 48.4738C329.889 51.9375 328.236 56.8182 328.236 63.1158V84.0159C328.236 86.2201 327.528 87.9519 326.111 89.2114C324.694 90.471 322.804 91.1007 320.443 91.1007ZM417.692 91.1007C410.843 91.1007 404.742 89.8806 399.389 87.4402C394.115 84.9212 389.982 81.3788 386.991 76.813C384 72.2473 382.504 66.973 382.504 60.9903C382.504 55.0076 384 49.7334 386.991 45.1676C389.982 40.6018 394.115 37.0988 399.389 34.6585C404.742 32.1394 410.843 30.8799 417.692 30.8799C424.54 30.8799 430.602 32.1394 435.876 34.6585C441.229 37.0988 445.401 40.6018 448.393 45.1676C451.384 49.7334 452.88 55.0076 452.88 60.9903C452.88 66.973 451.384 72.2473 448.393 76.813C445.401 81.3788 441.229 84.9212 435.876 87.4402C430.602 89.8806 424.54 91.1007 417.692 91.1007ZM417.692 78.8204C423.753 78.8204 428.516 77.246 431.979 74.0972C435.522 70.9484 437.293 66.5794 437.293 60.9903C437.293 55.4012 435.522 51.0322 431.979 47.8834C428.516 44.7346 423.753 43.1602 417.692 43.1602C411.63 43.1602 406.828 44.7346 403.286 47.8834C399.822 51.0322 398.09 55.4012 398.09 60.9903C398.09 66.5794 399.822 70.9484 403.286 74.0972C406.828 77.246 411.63 78.8204 417.692 78.8204ZM514.495 80.1193C515.755 81.3788 516.385 82.8745 516.385 84.6063C516.385 86.4956 515.597 88.1094 514.023 89.4476C512.763 90.471 511.346 90.9826 509.772 90.9826C507.647 90.9826 505.679 90.0774 503.868 88.2668L486.865 70.0825L469.743 88.2668C467.932 90.0774 465.964 90.9826 463.839 90.9826C462.265 90.9826 460.848 90.471 459.588 89.4476C458.014 88.1094 457.226 86.4956 457.226 84.6063C457.226 82.8745 457.856 81.3788 459.116 80.1193L477.654 60.3999L460.651 42.3337C459.155 40.6806 458.407 38.9881 458.407 37.2562C458.407 35.367 459.194 33.7532 460.769 32.415C461.871 31.3916 463.249 30.8799 464.902 30.8799C467.027 30.8799 469.113 31.9033 471.16 33.95L486.865 50.5993L502.451 33.95C504.498 31.9033 506.584 30.8799 508.709 30.8799C510.362 30.8799 511.74 31.3916 512.842 32.415C514.417 33.7532 515.204 35.367 515.204 37.2562C515.204 38.9881 514.456 40.6806 512.96 42.3337L495.957 60.3999L514.495 80.1193ZM570.208 91.1007C567.846 91.1007 565.957 90.471 564.54 89.2114C563.123 87.9519 562.415 86.2201 562.415 84.0159V13.1679C562.415 10.9638 563.123 9.23192 564.54 7.9724C565.957 6.71288 567.846 6.08312 570.208 6.08312C572.491 6.08312 574.38 6.71288 575.876 7.9724C577.371 9.23192 578.119 10.9638 578.119 13.1679V84.0159C578.119 86.2201 577.371 87.9519 575.876 89.2114C574.38 90.471 572.491 91.1007 570.208 91.1007ZM601.344 91.1007C598.904 91.1007 597.014 90.471 595.676 89.2114C594.338 87.9519 593.669 86.2201 593.669 84.0159V37.9647C593.669 35.6818 594.299 33.95 595.558 32.7692C596.896 31.5097 598.746 30.8799 601.108 30.8799C603.469 30.8799 605.319 31.5097 606.658 32.7692C607.996 34.0287 608.665 35.7606 608.665 37.9647V41.389C614.254 34.383 621.89 30.8799 631.572 30.8799C639.13 30.8799 645.073 33.2809 649.403 38.0828C653.811 42.806 656.015 49.261 656.015 57.4479V84.0159C656.015 86.2201 655.307 87.9519 653.89 89.2114C652.473 90.471 650.583 91.1007 648.222 91.1007C645.781 91.1007 643.892 90.471 642.554 89.2114C641.216 87.9519 640.547 86.2201 640.547 84.0159V57.4479C640.547 52.9609 639.444 49.4578 637.24 46.9388C635.036 44.4198 631.966 43.1602 628.03 43.1602C622.047 43.1602 617.403 44.9314 614.097 48.4738C610.79 51.9375 609.137 56.8182 609.137 63.1158V84.0159C609.137 86.2201 608.429 87.9519 607.012 89.2114C605.595 90.471 603.706 91.1007 601.344 91.1007ZM673.991 91.1007C671.551 91.1007 669.661 90.471 668.323 89.2114C666.985 87.9519 666.316 86.2201 666.316 84.0159V37.9647C666.316 35.6818 666.945 33.95 668.205 32.7692C669.543 31.5097 671.393 30.8799 673.755 30.8799C676.116 30.8799 677.966 31.5097 679.304 32.7692C680.643 34.0287 681.312 35.7606 681.312 37.9647V41.389C686.901 34.383 694.537 30.8799 704.219 30.8799C711.776 30.8799 717.72 33.2809 722.049 38.0828C726.458 42.806 728.662 49.261 728.662 57.4479V84.0159C728.662 86.2201 727.953 87.9519 726.536 89.2114C725.119 90.471 723.23 91.1007 720.869 91.1007C718.428 91.1007 716.539 90.471 715.201 89.2114C713.863 87.9519 713.193 86.2201 713.193 84.0159V57.4479C713.193 52.9609 712.091 49.4578 709.887 46.9388C707.683 44.4198 704.613 43.1602 700.677 43.1602C694.694 43.1602 690.05 44.9314 686.743 48.4738C683.437 51.9375 681.784 56.8182 681.784 63.1158V84.0159C681.784 86.2201 681.076 87.9519 679.659 89.2114C678.242 90.471 676.352 91.1007 673.991 91.1007ZM771.24 91.1007C764.391 91.1007 758.29 89.8806 752.938 87.4402C747.663 84.9212 743.53 81.3788 740.539 76.813C737.548 72.2473 736.052 66.973 736.052 60.9903C736.052 55.0076 737.548 49.7334 740.539 45.1676C743.53 40.6018 747.663 37.0988 752.938 34.6585C758.29 32.1394 764.391 30.8799 771.24 30.8799C778.089 30.8799 784.15 32.1394 789.424 34.6585C794.777 37.0988 798.949 40.6018 801.941 45.1676C804.932 49.7334 806.428 55.0076 806.428 60.9903C806.428 66.973 804.932 72.2473 801.941 76.813C798.949 81.3788 794.777 84.9212 789.424 87.4402C784.15 89.8806 778.089 91.1007 771.24 91.1007ZM771.24 78.8204C777.301 78.8204 782.064 77.246 785.528 74.0972C789.07 70.9484 790.841 66.5794 790.841 60.9903C790.841 55.4012 789.07 51.0322 785.528 47.8834C782.064 44.7346 777.301 43.1602 771.24 43.1602C765.178 43.1602 760.377 44.7346 756.834 47.8834C753.37 51.0322 751.639 55.4012 751.639 60.9903C751.639 66.5794 753.37 70.9484 756.834 74.0972C760.377 77.246 765.178 78.8204 771.24 78.8204ZM843.128 91.1007C833.761 91.1007 827.266 85.8658 823.645 75.3961L811.129 39.4998C810.893 38.7913 810.775 38.1222 810.775 37.4924C810.775 35.6818 811.562 34.1468 813.136 32.8873C814.789 31.6278 816.915 30.998 819.512 30.998C821.087 30.998 822.425 31.3522 823.527 32.0607C824.629 32.7692 825.416 33.7532 825.889 35.0127L839.114 73.3887C839.744 75.3567 840.373 76.7737 841.003 77.6396C841.633 78.4268 842.341 78.8204 843.128 78.8204C843.916 78.8204 844.624 78.4268 845.254 77.6396C845.884 76.7737 846.513 75.3567 847.143 73.3887L860.368 35.0127C860.84 33.7532 861.628 32.7692 862.73 32.0607C863.832 31.3522 865.17 30.998 866.744 30.998C869.421 30.998 871.546 31.6278 873.121 32.8873C874.695 34.0681 875.482 35.6031 875.482 37.4924C875.482 38.1222 875.364 38.7913 875.128 39.4998L862.612 75.3961C858.991 85.8658 852.496 91.1007 843.128 91.1007ZM903.49 91.1007C898.61 91.1007 894.28 90.2742 890.502 88.621C886.802 86.9679 883.889 84.685 881.764 81.7724C879.717 78.781 878.694 75.3567 878.694 71.4994C878.694 65.6742 881.095 61.0297 885.897 57.566C890.777 54.1023 897.35 52.3705 905.616 52.3705C912.779 52.3705 918.526 53.9055 922.856 56.9756V54.1417C922.856 50.4418 921.714 47.6079 919.431 45.6399C917.148 43.6719 913.842 42.6879 909.513 42.6879C903.057 42.6879 897.508 44.0655 892.863 46.8207C890.895 47.9228 889.203 48.4738 887.786 48.4738C886.054 48.4738 884.519 47.6866 883.181 46.1122C882.315 45.0102 881.882 43.8687 881.882 42.6879C881.882 40.7199 882.905 38.9881 884.952 37.4924C887.786 35.4457 891.368 33.8319 895.697 32.6511C900.027 31.4703 904.593 30.8799 909.394 30.8799C918.526 30.8799 925.689 32.966 930.885 37.1382C936.159 41.2316 938.796 46.8994 938.796 54.1417V84.4882C938.796 86.535 938.088 88.1487 936.671 89.3295C935.333 90.5103 933.483 91.1007 931.121 91.1007C928.681 91.1007 926.792 90.5497 925.453 89.4476C924.115 88.3455 923.446 86.7711 923.446 84.7244V83.4255C918.959 88.5423 912.307 91.1007 903.49 91.1007ZM907.151 80.2374C912.11 80.2374 915.968 79.4895 918.723 77.9938C921.557 76.4194 922.974 74.2546 922.974 71.4994C922.974 68.9017 921.557 66.8156 918.723 65.2412C915.889 63.6668 912.11 62.8796 907.387 62.8796C903.136 62.8796 899.83 63.6274 897.468 65.1231C895.185 66.6188 894.044 68.7442 894.044 71.4994C894.044 74.2546 895.185 76.4194 897.468 77.9938C899.751 79.4895 902.979 80.2374 907.151 80.2374ZM994.24 74.6876C995.5 75.711 996.13 76.9705 996.13 78.4662C996.13 79.9618 995.579 81.4969 994.477 83.0713C992.745 85.5903 990.304 87.5583 987.156 88.9753C984.007 90.3922 980.464 91.1007 976.528 91.1007C970.231 91.1007 965.272 89.4082 961.65 86.0233C958.108 82.5596 956.337 77.8364 956.337 71.8537V44.223H951.496C949.134 44.223 947.245 43.6719 945.828 42.5698C944.411 41.4678 943.702 40.0114 943.702 38.2009C943.702 36.3116 944.371 34.8159 945.71 33.7138C947.127 32.6118 949.055 32.0607 951.496 32.0607H956.337V14.2306C956.337 12.0265 957.045 10.2946 958.462 9.03511C959.879 7.7756 961.768 7.14584 964.13 7.14584C966.57 7.14584 968.46 7.7756 969.798 9.03511C971.136 10.2946 971.805 12.0265 971.805 14.2306V32.0607H983.141C985.581 32.0607 987.471 32.6118 988.809 33.7138C990.226 34.8159 990.934 36.3116 990.934 38.2009C990.934 40.0114 990.226 41.4678 988.809 42.5698C987.471 43.6719 985.581 44.223 983.141 44.223H971.805V73.1526C971.805 74.8844 972.317 76.262 973.34 77.2854C974.442 78.3087 975.899 78.8204 977.709 78.8204C979.126 78.8204 980.346 78.6236 981.37 78.23C982.472 77.7577 983.574 77.0098 984.676 75.9865C986.723 74.0185 988.612 73.0345 990.344 73.0345C991.603 73.0345 992.902 73.5855 994.24 74.6876ZM1014.33 23.559C1011.41 23.559 1009.05 22.7718 1007.24 21.1974C1005.51 19.5442 1004.64 17.4188 1004.64 14.821C1004.64 12.2233 1005.51 10.1372 1007.24 8.5628C1009.05 6.90968 1011.41 6.08312 1014.33 6.08312C1017.24 6.08312 1019.6 6.90968 1021.41 8.5628C1023.3 10.1372 1024.24 12.2233 1024.24 14.821C1024.24 17.4188 1023.3 19.5442 1021.41 21.1974C1019.6 22.7718 1017.24 23.559 1014.33 23.559ZM1014.44 91.1007C1012 91.1007 1010.11 90.471 1008.78 89.2114C1007.44 87.9519 1006.77 86.2201 1006.77 84.0159V37.9647C1006.77 35.7606 1007.44 34.0287 1008.78 32.7692C1010.11 31.5097 1012 30.8799 1014.44 30.8799C1016.8 30.8799 1018.69 31.5097 1020.11 32.7692C1021.53 34.0287 1022.24 35.7606 1022.24 37.9647V84.0159C1022.24 86.2201 1021.53 87.9519 1020.11 89.2114C1018.69 90.471 1016.8 91.1007 1014.44 91.1007ZM1069.09 91.1007C1062.24 91.1007 1056.14 89.8806 1050.79 87.4402C1045.52 84.9212 1041.38 81.3788 1038.39 76.813C1035.4 72.2473 1033.9 66.973 1033.9 60.9903C1033.9 55.0076 1035.4 49.7334 1038.39 45.1676C1041.38 40.6018 1045.52 37.0988 1050.79 34.6585C1056.14 32.1394 1062.24 30.8799 1069.09 30.8799C1075.94 30.8799 1082 32.1394 1087.28 34.6585C1092.63 37.0988 1096.8 40.6018 1099.79 45.1676C1102.78 49.7334 1104.28 55.0076 1104.28 60.9903C1104.28 66.973 1102.78 72.2473 1099.79 76.813C1096.8 81.3788 1092.63 84.9212 1087.28 87.4402C1082 89.8806 1075.94 91.1007 1069.09 91.1007ZM1069.09 78.8204C1075.15 78.8204 1079.92 77.246 1083.38 74.0972C1086.92 70.9484 1088.69 66.5794 1088.69 60.9903C1088.69 55.4012 1086.92 51.0322 1083.38 47.8834C1079.92 44.7346 1075.15 43.1602 1069.09 43.1602C1063.03 43.1602 1058.23 44.7346 1054.69 47.8834C1051.22 51.0322 1049.49 55.4012 1049.49 60.9903C1049.49 66.5794 1051.22 70.9484 1054.69 74.0972C1058.23 77.246 1063.03 78.8204 1069.09 78.8204ZM1119.9 91.1007C1117.46 91.1007 1115.57 90.471 1114.24 89.2114C1112.9 87.9519 1112.23 86.2201 1112.23 84.0159V37.9647C1112.23 35.6818 1112.86 33.95 1114.12 32.7692C1115.46 31.5097 1117.31 30.8799 1119.67 30.8799C1122.03 30.8799 1123.88 31.5097 1125.22 32.7692C1126.56 34.0287 1127.23 35.7606 1127.23 37.9647V41.389C1132.81 34.383 1140.45 30.8799 1150.13 30.8799C1157.69 30.8799 1163.63 33.2809 1167.96 38.0828C1172.37 42.806 1174.58 49.261 1174.58 57.4479V84.0159C1174.58 86.2201 1173.87 87.9519 1172.45 89.2114C1171.03 90.471 1169.14 91.1007 1166.78 91.1007C1164.34 91.1007 1162.45 90.471 1161.11 89.2114C1159.78 87.9519 1159.11 86.2201 1159.11 84.0159V57.4479C1159.11 52.9609 1158 49.4578 1155.8 46.9388C1153.6 44.4198 1150.53 43.1602 1146.59 43.1602C1140.61 43.1602 1135.96 44.9314 1132.66 48.4738C1129.35 51.9375 1127.7 56.8182 1127.7 63.1158V84.0159C1127.7 86.2201 1126.99 87.9519 1125.57 89.2114C1124.16 90.471 1122.27 91.1007 1119.9 91.1007ZM1236.55 89.9199C1230.56 89.9199 1225.92 88.3455 1222.61 85.1967C1219.31 82.0479 1217.65 77.6396 1217.65 71.9718V13.1679C1217.65 10.9638 1218.36 9.23192 1219.78 7.9724C1221.19 6.71288 1223.08 6.08312 1225.45 6.08312C1227.81 6.08312 1229.7 6.75224 1231.11 8.09048C1232.61 9.35 1233.36 11.0425 1233.36 13.1679V71.9718C1233.36 73.7823 1233.79 75.1993 1234.66 76.2226C1235.6 77.246 1236.86 77.7577 1238.43 77.7577H1276.22C1278.58 77.7577 1280.39 78.3087 1281.65 79.4108C1282.91 80.4342 1283.54 81.9298 1283.54 83.8978C1283.54 85.7871 1282.87 87.2828 1281.53 88.3849C1280.27 89.4082 1278.5 89.9199 1276.22 89.9199H1236.55ZM1310.31 91.1007C1305.43 91.1007 1301.1 90.2742 1297.32 88.621C1293.62 86.9679 1290.71 84.685 1288.59 81.7724C1286.54 78.781 1285.52 75.3567 1285.52 71.4994C1285.52 65.6742 1287.92 61.0297 1292.72 57.566C1297.6 54.1023 1304.17 52.3705 1312.44 52.3705C1319.6 52.3705 1325.35 53.9055 1329.68 56.9756V54.1417C1329.68 50.4418 1328.54 47.6079 1326.25 45.6399C1323.97 43.6719 1320.66 42.6879 1316.34 42.6879C1309.88 42.6879 1304.33 44.0655 1299.69 46.8207C1297.72 47.9228 1296.03 48.4738 1294.61 48.4738C1292.88 48.4738 1291.34 47.6866 1290 46.1122C1289.14 45.0102 1288.7 43.8687 1288.7 42.6879C1288.7 40.7199 1289.73 38.9881 1291.77 37.4924C1294.61 35.4457 1298.19 33.8319 1302.52 32.6511C1306.85 31.4703 1311.42 30.8799 1316.22 30.8799C1325.35 30.8799 1332.51 32.966 1337.71 37.1382C1342.98 41.2316 1345.62 46.8994 1345.62 54.1417V84.4882C1345.62 86.535 1344.91 88.1487 1343.49 89.3295C1342.16 90.5103 1340.31 91.1007 1337.94 91.1007C1335.5 91.1007 1333.61 90.5497 1332.28 89.4476C1330.94 88.3455 1330.27 86.7711 1330.27 84.7244V83.4255C1325.78 88.5423 1319.13 91.1007 1310.31 91.1007ZM1313.97 80.2374C1318.93 80.2374 1322.79 79.4895 1325.55 77.9938C1328.38 76.4194 1329.8 74.2546 1329.8 71.4994C1329.8 68.9017 1328.38 66.8156 1325.55 65.2412C1322.71 63.6668 1318.93 62.8796 1314.21 62.8796C1309.96 62.8796 1306.65 63.6274 1304.29 65.1231C1302.01 66.6188 1300.87 68.7442 1300.87 71.4994C1300.87 74.2546 1302.01 76.4194 1304.29 77.9938C1306.57 79.4895 1309.8 80.2374 1313.97 80.2374ZM1363.56 91.1007C1361.12 91.1007 1359.23 90.471 1357.89 89.2114C1356.55 87.9519 1355.88 86.2201 1355.88 84.0159V7.38199C1355.88 5.17783 1356.55 3.44599 1357.89 2.18648C1359.23 0.926954 1361.12 0.297193 1363.56 0.297193C1365.92 0.297193 1367.81 0.926954 1369.23 2.18648C1370.64 3.44599 1371.35 5.17783 1371.35 7.38199L1371.47 40.0902C1374.23 37.0988 1377.53 34.8159 1381.39 33.2415C1385.25 31.6671 1389.34 30.8799 1393.67 30.8799C1403.43 30.8799 1411.07 33.5564 1416.58 38.9094C1422.09 44.1836 1424.84 51.5439 1424.84 60.9903C1424.84 70.4367 1422.05 77.8364 1416.46 83.1894C1410.95 88.4636 1403.23 91.1007 1393.32 91.1007C1388.83 91.1007 1384.89 90.3922 1381.51 88.9753C1378.12 87.4796 1374.74 85.0393 1371.35 81.6543V84.0159C1371.35 86.2201 1370.64 87.9519 1369.23 89.2114C1367.81 90.471 1365.92 91.1007 1363.56 91.1007ZM1390.95 78.8204C1396.7 78.8204 1401.19 77.246 1404.42 74.0972C1407.64 70.9484 1409.26 66.5794 1409.26 60.9903C1409.26 55.4012 1407.64 51.0322 1404.42 47.8834C1401.19 44.7346 1396.7 43.1602 1390.95 43.1602C1384.81 43.1602 1380.01 44.7346 1376.55 47.8834C1373.08 51.0322 1371.35 55.4012 1371.35 60.9903C1371.35 66.5794 1373.08 70.9484 1376.55 74.0972C1380.01 77.246 1384.81 78.8204 1390.95 78.8204ZM1460.22 91.1007C1447.55 91.1007 1438.22 87.4402 1432.24 80.1193C1430.98 78.4662 1430.35 76.9705 1430.35 75.6322C1430.35 73.743 1431.33 72.0898 1433.3 70.6729C1434.64 69.807 1435.94 69.374 1437.2 69.374C1438.93 69.374 1440.54 70.1218 1442.04 71.6175C1444.72 74.294 1447.31 76.2226 1449.83 77.4034C1452.43 78.5055 1455.62 79.0566 1459.4 79.0566C1462.62 79.0566 1465.34 78.6236 1467.54 77.7577C1469.75 76.8918 1470.85 75.829 1470.85 74.5695C1470.85 72.9951 1469.94 71.6569 1468.13 70.5548C1466.32 69.4527 1462.66 68.0358 1457.15 66.3039C1448.49 63.6274 1442.35 60.8329 1438.73 57.9202C1435.11 54.9289 1433.3 51.229 1433.3 46.8207C1433.3 41.8614 1435.43 37.9647 1439.68 35.1308C1443.93 32.2969 1449.79 30.8799 1457.27 30.8799C1463.02 30.8799 1468.21 31.7458 1472.86 33.4777C1477.5 35.2095 1480.89 37.5318 1483.01 40.4444C1484.04 41.7826 1484.55 43.1209 1484.55 44.4591C1484.55 46.3484 1483.6 47.8834 1481.71 49.0642C1480.38 49.9302 1479 50.3631 1477.58 50.3631C1475.3 50.3631 1473.21 49.4185 1471.32 47.5292C1469.75 46.0335 1467.7 44.8921 1465.18 44.1049C1462.74 43.3177 1460.07 42.9241 1457.15 42.9241C1451.64 42.9241 1448.89 44.223 1448.89 46.8207C1448.89 47.8441 1449.32 48.7494 1450.19 49.5366C1451.05 50.3238 1452.59 51.1503 1454.79 52.0162C1457.07 52.8822 1460.62 54.063 1465.42 55.5586C1473.13 57.9202 1478.53 60.518 1481.6 63.3519C1484.74 66.1858 1486.32 69.925 1486.32 74.5695C1486.32 79.5289 1484.04 83.5436 1479.47 86.6137C1474.9 89.605 1468.49 91.1007 1460.22 91.1007Z" fill="white"/>
</g>
<defs>
<filter id="filter0_d_186_106" x="0.421875" y="0.297363" width="1489.9" height="98.8032" filterUnits="userSpaceOnUse" color-interpolation-filters="sRGB">
<feFlood flood-opacity="0" result="BackgroundImageFix"/>
<feColorMatrix in="SourceAlpha" type="matrix" values="0 0 0 0 0 0 0 0 0 0 0 0 0 0 0 0 0 0 127 0" result="hardAlpha"/>
<feOffset dy="4"/>
<feGaussianBlur stdDeviation="2"/>
<feComposite in2="hardAlpha" operator="out"/>
<feColorMatrix type="matrix" values="0 0 0 0 0 0 0 0 0 0 0 0 0 0 0 0 0 0 0.25 0"/>
<feBlend mode="normal" in2="BackgroundImageFix" result="effect1_dropShadow_186_106"/>
<feBlend mode="normal" in="SourceGraphic" in2="effect1_dropShadow_186_106" result="shape"/>
</filter>
</defs>
</svg>
